<svg width="40" height="40" viewBox="0 0 40 40" fill="none" xmlns="http://www.w3.org/2000/svg">
<rect width="40" height="40" rx="6" fill="#F3F6F9"/>
<g clip-path="url(#clip0_380_7505)">
<path d="M28.832 16.5749C28.6565 17.3712 28.3581 18.1558 27.9457 18.9066C26.802 20.9878 24.1206 25.3773 21.0071 27.1408C20.3398 27.5192 19.6522 27.7768 18.9557 27.865L18.9227 27.8691H18.883C18.7251 27.8691 18.1568 27.8059 17.4826 26.9922C16.7001 26.0481 16.0255 24.4208 15.4771 22.1552L15.4762 22.1504C15.469 22.1209 14.7814 19.184 13.7428 17.0971L13.7354 17.0813C13.7336 17.0775 13.5427 16.6714 13.0949 16.6714C12.8379 16.6714 12.5459 16.7998 12.2264 17.0533C11.9032 17.3103 11.4425 17.2639 11.1779 16.9483C10.9245 16.6457 10.9442 16.2077 11.2239 15.9293C12.018 15.1388 13.6702 13.4943 14.951 12.8453C15.05 12.795 15.1552 12.7512 15.2725 12.7115H15.2729C15.9364 12.4873 16.645 12.5396 17.2685 12.8583C17.8884 13.1753 18.3422 13.7151 18.5471 14.3786C18.6662 14.7639 18.7605 15.2058 18.8284 15.6927L18.8293 15.7001C18.9336 16.5383 19.1621 18.1562 19.5223 19.5732C20.0808 21.7692 20.5876 22.069 20.6834 22.1065L20.6922 22.1103C20.6933 22.1107 20.72 22.1216 20.7698 22.1216C20.8418 22.1216 20.9207 22.1083 21.0071 22.0763C21.5463 21.8777 22.3701 20.9591 23.5059 18.0789L23.5081 18.0741C23.5113 18.0667 23.5109 18.0667 23.5233 18.0358L23.5481 17.9706C23.6099 17.8115 23.6442 17.6511 23.6506 17.4937C23.6598 17.2614 23.6289 16.93 23.4295 16.6717C23.1975 16.3716 22.8085 16.2399 22.2406 16.2712C21.9728 16.2859 21.7231 16.161 21.5736 15.9374C21.424 15.7138 21.4041 15.4357 21.5199 15.1932C21.8776 14.4449 22.494 13.7113 23.2111 13.1805C24.1438 12.49 25.2526 12.125 26.4176 12.125H26.4216C26.4746 12.1257 27.7252 12.1478 28.501 13.3044C29.0264 14.0883 29.1377 15.1887 28.832 16.5749Z" fill="#6AA9FF"/>
<path d="M28.8315 16.5749C28.656 17.3712 28.3575 18.1558 27.9451 18.9066C26.8015 20.9878 24.1201 25.3773 21.0066 27.1408V22.0763C21.5457 21.8777 22.3696 20.9591 23.5054 18.0789L23.5076 18.0741C23.5108 18.0667 23.5104 18.0667 23.5227 18.0358L23.5476 17.9706C23.6094 17.8115 23.6437 17.6511 23.65 17.4937C23.6592 17.2614 23.6283 16.93 23.4289 16.6717C23.197 16.3716 22.8079 16.2399 22.2401 16.2712C21.9723 16.2859 21.7226 16.161 21.5731 15.9374C21.4235 15.7138 21.4036 15.4357 21.5194 15.1932C21.8771 14.4449 22.4935 13.7113 23.2106 13.1805C24.1433 12.49 25.2521 12.125 26.4171 12.125H26.4211C26.4741 12.1257 27.7247 12.1478 28.5005 13.3044C29.0259 14.0883 29.1372 15.1887 28.8315 16.5749Z" fill="#2682FF"/>
</g>
<defs>
<clipPath id="clip0_380_7505">
<rect width="18" height="18" fill="white" transform="translate(11 11)"/>
</clipPath>
</defs>
</svg>
