<!-- <svg width="32" height="32" viewBox="0 0 32 32" xmlns="http://www.w3.org/2000/svg" xmlns:xlink="http://www.w3.org/1999/xlink">
    <defs>
        <linearGradient x1="50%" y1="0%" x2="50%" y2="100%" id="icon3-b">
            <stop stop-color="#E2E8F0" offset="0%" />
            <stop stop-color="#94A3B8" offset="100%" />
        </linearGradient>
        <linearGradient x1="50%" y1="24.537%" x2="50%" y2="99.142%" id="icon3-c">
            <stop stop-color="#334155" offset="0%" />
            <stop stop-color="#334155" stop-opacity="0" offset="100%" />
        </linearGradient>
        <path id="icon3-a" d="M16 0l16 32-16-5-16 5z" />
    </defs>
    <g transform="rotate(90 16 16)" fill="none" fill-rule="evenodd">
        <mask id="icon3-d" fill="#fff">
            <use xlink:href="#icon3-a" />
        </mask>
        <use fill="url(#icon3-b)" xlink:href="#icon3-a" />
        <path fill="url(#icon3-c)" mask="url(#icon3-d)" d="M16-6h20v38H16z" />
    </g>
</svg> -->
<svg width="50" height="50" viewBox="0 0 50 50" fill="none" xmlns="http://www.w3.org/2000/svg">
<path d="M50 25C50 11.1929 38.8071 0 25 0C11.1929 0 0 11.1929 0 25C0 38.8071 11.1929 50 25 50C38.8071 50 50 38.8071 50 25Z" fill="#D1CFFF"/>
<path d="M35.7951 28.6034L33.6201 26.5085V21.3467C33.649 19.43 32.9529 17.5679 31.6603 16.1043C30.3677 14.6408 28.5659 13.6746 26.5876 13.3842C25.4395 13.2393 24.2723 13.3307 23.1639 13.6522C22.0556 13.9736 21.0315 14.5178 20.1602 15.2484C19.2888 15.9789 18.5901 16.8791 18.1107 17.8888C17.6313 18.8985 17.3822 19.9945 17.3801 21.1037V26.5085L15.2051 28.6034C14.9319 28.8694 14.7466 29.2067 14.6725 29.573C14.5983 29.9393 14.6385 30.3185 14.7881 30.663C14.9377 31.0076 15.1899 31.3023 15.5134 31.5103C15.8369 31.7182 16.2172 31.8303 16.6068 31.8324H20.6668V32.2259C20.7232 33.4008 21.2636 34.5064 22.1696 35.3004C23.0756 36.0944 24.2732 36.512 25.5001 36.4618C26.727 36.512 27.9246 36.0944 28.8306 35.3004C29.7366 34.5064 30.277 33.4008 30.3334 32.2259V31.8324H34.3934C34.783 31.8303 35.1633 31.7182 35.4868 31.5103C35.8103 31.3023 36.0626 31.0076 36.2121 30.663C36.3617 30.3185 36.4019 29.9393 36.3277 29.573C36.2536 29.2067 36.0683 28.8694 35.7951 28.6034V28.6034ZM27.9168 32.2259C27.8498 32.7826 27.5611 33.293 27.1109 33.6509C26.6607 34.0088 26.0837 34.1865 25.5001 34.1471C24.9165 34.1865 24.3395 34.0088 23.8893 33.6509C23.4391 33.293 23.1505 32.7826 23.0834 32.2259V31.8324H27.9168V32.2259ZM17.658 29.5177L19.0839 28.152C19.31 27.9367 19.4895 27.6806 19.6118 27.3985C19.7342 27.1165 19.797 26.814 19.7968 26.5085V21.1037C19.7974 20.323 19.9724 19.5514 20.3101 18.8407C20.6477 18.1301 21.1401 17.4969 21.7543 16.9835C22.3602 16.4577 23.0781 16.0643 23.8584 15.8305C24.6387 15.5967 25.4627 15.5281 26.2734 15.6294C27.6709 15.8467 28.9393 16.5403 29.8451 17.5823C30.751 18.6244 31.2334 19.9448 31.2034 21.3005V26.5085C31.2016 26.8132 31.2626 27.1152 31.3828 27.3972C31.5031 27.6792 31.6803 27.9357 31.9043 28.152L33.3422 29.5177H17.658Z" fill="#231F20"/>
</svg>
