<!-- <svg width="32" height="32" viewBox="0 0 32 32" xmlns="http://www.w3.org/2000/svg" xmlns:xlink="http://www.w3.org/1999/xlink">
    <defs>
        <linearGradient x1="50%" y1="0%" x2="50%" y2="100%" id="icon2-b">
            <stop stop-color="#BAE6FD" offset="0%" />
            <stop stop-color="#38BDF8" offset="100%" />
        </linearGradient>
        <linearGradient x1="50%" y1="25.718%" x2="50%" y2="100%" id="icon2-c">
            <stop stop-color="#0284C7" offset="0%" />
            <stop stop-color="#0284C7" stop-opacity="0" offset="100%" />
        </linearGradient>
        <path id="icon2-a" d="M16 0l16 32-16-5-16 5z" />
    </defs>
    <g transform="rotate(90 16 16)" fill="none" fill-rule="evenodd">
        <mask id="icon2-d" fill="#fff">
            <use xlink:href="#icon2-a" />
        </mask>
        <use fill="url(#icon2-b)" xlink:href="#icon2-a" />
        <path fill="url(#icon2-c)" mask="url(#icon2-d)" d="M16-6h20v38H16z" />
    </g>
</svg> -->

<svg width="50" height="50" viewBox="0 0 50 50" fill="none" xmlns="http://www.w3.org/2000/svg">
<g clip-path="url(#clip0_663_11770)">
<path d="M50 25C50 11.1929 38.8071 0 25 0C11.1929 0 0 11.1929 0 25C0 38.8071 11.1929 50 25 50C38.8071 50 50 38.8071 50 25Z" fill="#D1CFFF"/>
<path d="M34.25 16H16.75C15.7554 16 14.8016 16.429 14.0983 17.1925C13.3951 17.956 13 18.9916 13 20.0714V30.9286C13 32.0084 13.3951 33.044 14.0983 33.8075C14.8016 34.571 15.7554 35 16.75 35H34.25C35.2446 35 36.1984 34.571 36.9017 33.8075C37.6049 33.044 38 32.0084 38 30.9286V20.0714C38 18.9916 37.6049 17.956 36.9017 17.1925C36.1984 16.429 35.2446 16 34.25 16ZM24.25 29.5714H19.25C18.9185 29.5714 18.6005 29.4284 18.3661 29.1739C18.1317 28.9194 18 28.5742 18 28.2143C18 27.8543 18.1317 27.5092 18.3661 27.2546C18.6005 27.0001 18.9185 26.8571 19.25 26.8571H24.25C24.5815 26.8571 24.8995 27.0001 25.1339 27.2546C25.3683 27.5092 25.5 27.8543 25.5 28.2143C25.5 28.5742 25.3683 28.9194 25.1339 29.1739C24.8995 29.4284 24.5815 29.5714 24.25 29.5714ZM31.75 29.5714H29.25C28.9185 29.5714 28.6005 29.4284 28.3661 29.1739C28.1317 28.9194 28 28.5742 28 28.2143C28 27.8543 28.1317 27.5092 28.3661 27.2546C28.6005 27.0001 28.9185 26.8571 29.25 26.8571H31.75C32.0815 26.8571 32.3995 27.0001 32.6339 27.2546C32.8683 27.5092 33 27.8543 33 28.2143C33 28.5742 32.8683 28.9194 32.6339 29.1739C32.3995 29.4284 32.0815 29.5714 31.75 29.5714ZM35.5 21.4286H15.5V20.0714C15.5 19.7115 15.6317 19.3663 15.8661 19.1118C16.1005 18.8573 16.4185 18.7143 16.75 18.7143H34.25C34.5815 18.7143 34.8995 18.8573 35.1339 19.1118C35.3683 19.3663 35.5 19.7115 35.5 20.0714V21.4286Z" fill="#231F20"/>
</g>
<defs>
<clipPath id="clip0_663_11770">
<rect width="50" height="50" fill="white"/>
</clipPath>
</defs>
</svg>
