<!-- <svg width="32" height="32" viewBox="0 0 32 32" xmlns="http://www.w3.org/2000/svg" xmlns:xlink="http://www.w3.org/1999/xlink">
    <defs>
        <linearGradient x1="50%" y1="0%" x2="50%" y2="100%" id="icon1-b">
            <stop stop-color="#A5B4FC" offset="0%" />
            <stop stop-color="#818CF8" offset="100%" />
        </linearGradient>
        <linearGradient x1="50%" y1="24.537%" x2="50%" y2="100%" id="icon1-c">
            <stop stop-color="#4338CA" offset="0%" />
            <stop stop-color="#6366F1" stop-opacity="0" offset="100%" />
        </linearGradient>
        <path id="icon1-a" d="M16 0l16 32-16-5-16 5z" />
    </defs>
    <g transform="rotate(90 16 16)" fill="none" fill-rule="evenodd">
        <mask id="icon1-d" fill="#fff">
            <use xlink:href="#icon1-a" />
        </mask>
        <use fill="url(#icon1-b)" xlink:href="#icon1-a" />
        <path fill="url(#icon1-c)" mask="url(#icon1-d)" d="M16-6h20v38H16z" />
    </g>
</svg> -->

<!-- <svg width="50" height="50" viewBox="0 0 50 50" fill="none" xmlns="http://www.w3.org/2000/svg">
<rect width="50" height="50" rx="25" fill="#D9CFFF"/>
<rect x="15" y="15" width="8.75" height="8.75" rx="1.5" fill="black"/>
<path opacity="0.3" fill-rule="evenodd" clip-rule="evenodd" d="M26.25 16.5C26.25 15.6716 26.9216 15 27.75 15H33.5C34.3284 15 35 15.6716 35 16.5V22.25C35 23.0784 34.3284 23.75 33.5 23.75H27.75C26.9216 23.75 26.25 23.0784 26.25 22.25V16.5ZM15 27.75C15 26.9216 15.6716 26.25 16.5 26.25H22.25C23.0784 26.25 23.75 26.9216 23.75 27.75V33.5C23.75 34.3284 23.0784 35 22.25 35H16.5C15.6716 35 15 34.3284 15 33.5V27.75ZM27.75 26.25C26.9216 26.25 26.25 26.9216 26.25 27.75V33.5C26.25 34.3284 26.9216 35 27.75 35H33.5C34.3284 35 35 34.3284 35 33.5V27.75C35 26.9216 34.3284 26.25 33.5 26.25H27.75Z" fill="black"/>
</svg> -->

<svg width="50" height="50" viewBox="0 0 50 50" fill="none" xmlns="http://www.w3.org/2000/svg">
<rect width="50" height="50" rx="25" fill="#D1CFFF"/>
<path d="M33.7501 15.8332H32.3751V14.6248C32.3751 14.3044 32.2303 13.997 31.9724 13.7704C31.7145 13.5438 31.3648 13.4165 31.0001 13.4165C30.6354 13.4165 30.2857 13.5438 30.0278 13.7704C29.77 13.997 29.6251 14.3044 29.6251 14.6248V15.8332H21.3751V14.6248C21.3751 14.3044 21.2303 13.997 20.9724 13.7704C20.7145 13.5438 20.3648 13.4165 20.0001 13.4165C19.6354 13.4165 19.2857 13.5438 19.0278 13.7704C18.77 13.997 18.6251 14.3044 18.6251 14.6248V15.8332H17.2501C16.1561 15.8332 15.1069 16.2151 14.3333 16.8949C13.5597 17.5747 13.1251 18.4968 13.1251 19.4582V33.9582C13.1251 34.9196 13.5597 35.8416 14.3333 36.5214C15.1069 37.2013 16.1561 37.5832 17.2501 37.5832H33.7501C34.8441 37.5832 35.8933 37.2013 36.6669 36.5214C37.4405 35.8416 37.8751 34.9196 37.8751 33.9582V19.4582C37.8751 18.4968 37.4405 17.5747 36.6669 16.8949C35.8933 16.2151 34.8441 15.8332 33.7501 15.8332V15.8332ZM17.2501 18.2498H18.6251V19.4582C18.6251 19.7786 18.77 20.086 19.0278 20.3126C19.2857 20.5392 19.6354 20.6665 20.0001 20.6665C20.3648 20.6665 20.7145 20.5392 20.9724 20.3126C21.2303 20.086 21.3751 19.7786 21.3751 19.4582V18.2498H29.6251V19.4582C29.6251 19.7786 29.77 20.086 30.0278 20.3126C30.2857 20.5392 30.6354 20.6665 31.0001 20.6665C31.3648 20.6665 31.7145 20.5392 31.9724 20.3126C32.2303 20.086 32.3751 19.7786 32.3751 19.4582V18.2498H33.7501C34.1148 18.2498 34.4645 18.3771 34.7224 18.6038C34.9803 18.8304 35.1251 19.1377 35.1251 19.4582V24.2915H15.8751V19.4582C15.8751 19.1377 16.02 18.8304 16.2778 18.6038C16.5357 18.3771 16.8854 18.2498 17.2501 18.2498V18.2498ZM33.7501 35.1665H17.2501C16.8854 35.1665 16.5357 35.0392 16.2778 34.8126C16.02 34.586 15.8751 34.2786 15.8751 33.9582V26.7082H35.1251V33.9582C35.1251 34.2786 34.9803 34.586 34.7224 34.8126C34.4645 35.0392 34.1148 35.1665 33.7501 35.1665Z" fill="#231F20"/>
<path d="M20.0001 31.5417C20.7595 31.5417 21.3751 31.0007 21.3751 30.3333C21.3751 29.666 20.7595 29.125 20.0001 29.125C19.2407 29.125 18.6251 29.666 18.6251 30.3333C18.6251 31.0007 19.2407 31.5417 20.0001 31.5417Z" fill="#231F20"/>
<path d="M31 29.125H25.5C25.1353 29.125 24.7856 29.2523 24.5277 29.4789C24.2699 29.7055 24.125 30.0129 24.125 30.3333C24.125 30.6538 24.2699 30.9611 24.5277 31.1878C24.7856 31.4144 25.1353 31.5417 25.5 31.5417H31C31.3647 31.5417 31.7144 31.4144 31.9723 31.1878C32.2301 30.9611 32.375 30.6538 32.375 30.3333C32.375 30.0129 32.2301 29.7055 31.9723 29.4789C31.7144 29.2523 31.3647 29.125 31 29.125Z" fill="#231F20"/>
</svg>
