<svg width="40" height="40" viewBox="0 0 40 40" fill="none" xmlns="http://www.w3.org/2000/svg">
<rect width="40" height="40" rx="6" fill="#F3F6F9"/>
<path d="M16.9932 29C14.7369 29 12.9014 27.1644 12.9014 24.9082V17.9007C12.9014 14.0956 15.997 11 19.8021 11H20.1979C24.003 11 27.0987 14.0956 27.0987 17.9007C27.0987 21.3925 24.4955 24.3072 21.085 24.7448V24.9082C21.085 27.1644 19.2495 29 16.9932 29Z" fill="#FF3C3C"/>
<path d="M20.1979 11H20V27.6803C20.6731 26.9507 21.085 25.9767 21.085 24.9082V24.7448C24.4955 24.3072 27.0987 21.3925 27.0987 17.9007C27.0986 14.0956 24.003 11 20.1979 11Z" fill="#DA0806"/>
<path d="M20.1977 13.104H19.8018C17.157 13.104 15.0051 15.2559 15.0051 17.9007V24.908C15.0051 26.0042 15.8968 26.8959 16.993 26.8959C18.0889 26.8959 18.9805 26.0042 18.9805 24.908V22.6975H20.1976C22.8425 22.6975 24.9944 20.5456 24.9944 17.9008C24.9944 15.2559 22.8425 13.104 20.1977 13.104ZM20.1977 19.7819H18.4504C18.1578 19.7819 17.9203 19.5448 17.9203 19.2518V17.9007C17.9203 16.8631 18.7642 16.0192 19.8018 16.0192H20.1977C21.2353 16.0192 22.0792 16.8631 22.0792 17.9007C22.0792 18.938 21.2353 19.7819 20.1977 19.7819Z" fill="white"/>
<path d="M20.1979 13.104H20V16.0192H20.1979C21.2355 16.0192 22.0794 16.8632 22.0794 17.9008C22.0794 18.938 21.2355 19.7819 20.1979 19.7819H20V22.6975H20.1979C22.8428 22.6975 24.9946 20.5456 24.9946 17.9008C24.9946 15.256 22.8428 13.104 20.1979 13.104Z" fill="#DCE1EB"/>
</svg>
