<svg width="23" height="23" viewBox="0 0 23 23" fill="none" xmlns="http://www.w3.org/2000/svg">
<path opacity="0.3" d="M11.5001 10.5417C9.38299 10.5417 7.66675 8.82543 7.66675 6.70833C7.66675 4.59124 9.38299 2.875 11.5001 2.875C13.6172 2.875 15.3334 4.59124 15.3334 6.70833C15.3334 8.82543 13.6172 10.5417 11.5001 10.5417Z" fill="#B5B5C3"/>
<path d="M2.87562 19.3575C3.24708 14.7837 6.95933 12.4583 11.484 12.4583C16.0724 12.4583 19.8422 14.6559 20.123 19.3583C20.1342 19.5456 20.123 20.1249 19.4031 20.1249C15.8519 20.1249 10.5749 20.1249 3.57219 20.1249C3.33185 20.1249 2.85539 19.6066 2.87562 19.3575Z" fill="#B5B5C3"/>
</svg>
