<svg width="40" height="40" viewBox="0 0 40 40" fill="none" xmlns="http://www.w3.org/2000/svg">
<rect width="40" height="40" rx="6" fill="#F3F6F9"/>
<g clip-path="url(#clip0_380_7474)">
<path d="M14.6914 15.2539H11.5273C11.2359 15.2539 11 15.018 11 14.7266C11 14.4351 11.2359 14.1992 11.5273 14.1992H14.6914C14.9824 14.1992 15.2188 13.9628 15.2188 13.6719C15.2188 13.3809 14.9824 13.1445 14.6914 13.1445C14.3999 13.1445 14.1641 12.9087 14.1641 12.6172C14.1641 12.3257 14.3999 12.0898 14.6914 12.0898C15.5638 12.0898 16.2734 12.7995 16.2734 13.6719C16.2734 14.5442 15.5638 15.2539 14.6914 15.2539Z" fill="#E1EEF1"/>
<path d="M27.418 29H24.2539C23.9624 29 23.7266 28.7641 23.7266 28.4727C23.7266 28.1812 23.9624 27.9453 24.2539 27.9453H27.418C27.7089 27.9453 27.9453 27.7089 27.9453 27.418C27.9453 27.127 27.7089 26.8906 27.418 26.8906C27.1265 26.8906 26.8906 26.6548 26.8906 26.3633C26.8906 26.0718 27.1265 25.8359 27.418 25.8359C28.2903 25.8359 29 26.5456 29 27.418C29 28.2903 28.2903 29 27.418 29Z" fill="#C3DCE1"/>
<path d="M13.6367 17.3633H11.5273C11.2359 17.3633 11 17.1274 11 16.8359C11 16.5445 11.2359 16.3086 11.5273 16.3086H13.6367C13.9282 16.3086 14.1641 16.5445 14.1641 16.8359C14.1641 17.1274 13.9282 17.3633 13.6367 17.3633Z" fill="#E1EEF1"/>
<path d="M14.6914 19.4727H12.582C12.2906 19.4727 12.0547 19.2368 12.0547 18.9453C12.0547 18.6538 12.2906 18.418 12.582 18.418H14.6914C14.9829 18.418 15.2188 18.6538 15.2188 18.9453C15.2188 19.2368 14.9829 19.4727 14.6914 19.4727Z" fill="#E1EEF1"/>
<path d="M25.3086 26.8906H23.1992C22.9077 26.8906 22.6719 26.6548 22.6719 26.3633C22.6719 26.0718 22.9077 25.8359 23.1992 25.8359H25.3086C25.6001 25.8359 25.8359 26.0718 25.8359 26.3633C25.8359 26.6548 25.6001 26.8906 25.3086 26.8906Z" fill="#C3DCE1"/>
<path d="M22.3511 25.1612L24.5434 23.7719L24.4936 22.6143L23.4118 23.3147L21.2195 24.7039L21.3225 25.8831L22.3511 25.1612Z" fill="#C3DCE1"/>
<path d="M18.5933 23.6429L17.9818 21.1208L17.7997 19.9097L16.8501 20.6636L17.4614 23.1856L17.6345 24.393L18.5933 23.6429Z" fill="#E1EEF1"/>
<path d="M21.0918 21.2398L20.6028 21.0422L19.0225 24.9538L19.5114 25.1513L20.0003 25.3489L21.5807 21.4373L21.0918 21.2398Z" fill="#E1EEF1"/>
<path d="M19.512 25.1575L21.094 21.2467L21.5828 21.4445L20.0008 25.3552L19.512 25.1575Z" fill="#C3DCE1"/>
<path d="M16.8047 14.9577C15.8801 17.2498 16.7137 18.9354 16.8504 20.6637L17.9821 21.1209L19.3464 21.6721L25.0426 11.4608C21.8076 10.1538 18.1128 11.7226 16.8047 14.9577Z" fill="#FF4A4A"/>
<path d="M25.0424 11.4609L22.0466 22.7633L23.4116 23.3147L24.5432 23.772C25.8508 22.6161 27.6127 21.9902 28.5391 19.6991C29.846 16.4635 28.277 12.7679 25.0424 11.4609Z" fill="#E70C6A"/>
<path d="M25.0427 11.4607C23.6924 10.9152 21.5366 13.0999 20.2274 16.3403C19.4024 18.3823 19.1117 20.3547 19.3464 21.6719L20.6966 22.2175L22.0469 22.763C23.1308 21.9785 24.2918 20.3578 25.1168 18.3158C26.4261 15.0753 26.3929 12.0062 25.0427 11.4607Z" fill="#FFB725"/>
<path d="M25.1167 18.316C26.4259 15.0756 26.3928 12.0065 25.0425 11.4609L20.6965 22.2177L22.0468 22.7633C23.1307 21.9787 24.2917 20.358 25.1167 18.316Z" fill="#FA8B28"/>
<path d="M19.9061 24.1735L17.4614 23.1858L16.0786 26.6084C15.9695 26.8784 16.0999 27.1858 16.37 27.2949L18.3258 28.0851L20.2815 28.8752C20.5516 28.9843 20.8589 28.8539 20.968 28.5838L22.3509 25.1612L19.9061 24.1735Z" fill="#55696E"/>
<path d="M20.9684 28.5839L22.3513 25.1613L19.9066 24.1736L18.3262 28.0851L20.2819 28.8753C20.5519 28.9844 20.8594 28.8539 20.9684 28.5839Z" fill="#3F4A4A"/>
</g>
<defs>
<clipPath id="clip0_380_7474">
<rect width="18" height="18" fill="white" transform="translate(11 11)"/>
</clipPath>
</defs>
</svg>
