<svg version="1.1" viewBox="0.0 0.0 960.0 720.0" fill="none" stroke="none" stroke-linecap="square" stroke-miterlimit="10" xmlns:xlink="http://www.w3.org/1999/xlink" xmlns="http://www.w3.org/2000/svg"><clipPath id="p.0"><path d="m0 0l960.0 0l0 720.0l-960.0 0l0 -720.0z" clip-rule="nonzero"/></clipPath><g clip-path="url(#p.0)"><path fill="#000000" fill-opacity="0.0" d="m0 0l960.0 0l0 720.0l-960.0 0z" fill-rule="evenodd"/><defs><radialGradient id="p.1" gradientUnits="userSpaceOnUse" gradientTransform="matrix(30.18906413216304 0.0 0.0 30.18906413216304 0.0 0.0)" spreadMethod="pad" cx="4.51328891506696" cy="2.0156435931367005" fx="4.51328891506696" fy="2.0156435931367005" r="30.189064025878906"><stop offset="0.0" stop-color="#7400b8"/><stop offset="0.99999994" stop-color="#5e60ce"/><stop offset="1.0" stop-color="#9180bb"/></radialGradient></defs><path fill="url(#p.1)" d="m136.25197 160.56892l0 0c0 -55.07302 44.645508 -99.71853 99.71854 -99.71853l488.05896 0c26.447021 0 51.81079 10.506027 70.51166 29.206879c18.700867 18.700851 29.20691 44.064644 29.20691 70.51165l0 398.86218c0 55.072998 -44.645508 99.718506 -99.71857 99.718506l-488.05896 0c-55.07303 0 -99.71854 -44.645508 -99.71854 -99.718506z" fill-rule="evenodd"/><path stroke="#000000" stroke-width="1.0" stroke-linejoin="round" stroke-linecap="butt" d="m136.25197 160.56892l0 0c0 -55.07302 44.645508 -99.71853 99.71854 -99.71853l488.05896 0c26.447021 0 51.81079 10.506027 70.51166 29.206879c18.700867 18.700851 29.20691 44.064644 29.20691 70.51165l0 398.86218c0 55.072998 -44.645508 99.718506 -99.71857 99.718506l-488.05896 0c-55.07303 0 -99.71854 -44.645508 -99.71854 -99.718506z" fill-rule="evenodd"/><path fill="#ffffff" d="m186.97598 202.25757l51.527557 0l0 398.2047l-51.527557 0z" fill-rule="evenodd"/><path stroke="#ffffff" stroke-width="1.0" stroke-linejoin="round" stroke-linecap="butt" d="m186.97598 202.25757l51.527557 0l0 398.2047l-51.527557 0z" fill-rule="evenodd"/><path fill="#ffffff" d="m721.5174 224.1098l51.527588 0l0 376.37793l-51.527588 0z" fill-rule="evenodd"/><path stroke="#ffffff" stroke-width="1.0" stroke-linejoin="round" stroke-linecap="butt" d="m721.5174 224.1098l51.527588 0l0 376.37793l-51.527588 0z" fill-rule="evenodd"/><path fill="#ffffff" d="m772.24396 224.1098l0 44.503937l-388.126 0l0 -44.503937z" fill-rule="evenodd"/><path stroke="#ffffff" stroke-width="1.0" stroke-linejoin="round" stroke-linecap="butt" d="m772.24396 224.1098l0 44.503937l-388.126 0l0 -44.503937z" fill-rule="evenodd"/><path fill="#ffffff" d="m768.6719 555.97675l0 44.503967l-581.6693 0l0 -44.503967z" fill-rule="evenodd"/><path stroke="#ffffff" stroke-width="1.0" stroke-linejoin="round" stroke-linecap="butt" d="m768.6719 555.97675l0 44.503967l-581.6693 0l0 -44.503967z" fill-rule="evenodd"/><path fill="#ffffff" d="m589.35284 496.4139l69.60632 0l0 104.031525l-69.60632 0z" fill-rule="evenodd"/><path stroke="#ffffff" stroke-width="1.0" stroke-linejoin="round" stroke-linecap="butt" d="m589.35284 496.4139l69.60632 0l0 104.031525l-69.60632 0z" fill-rule="evenodd"/><path fill="#ffffff" d="m669.87164 390.04327l0 44.503937l-91.40155 0l0 -44.503937z" fill-rule="evenodd"/><path stroke="#ffffff" stroke-width="1.0" stroke-linejoin="round" stroke-linecap="butt" d="m669.87164 390.04327l0 44.503937l-91.40155 0l0 -44.503937z" fill-rule="evenodd"/><path fill="#ffffff" d="m475.26816 119.474976l51.527557 0l0 481.03937l-51.527557 0z" fill-rule="evenodd"/><path stroke="#ffffff" stroke-width="1.0" stroke-linejoin="round" stroke-linecap="butt" d="m475.26816 119.474976l51.527557 0l0 481.03937l-51.527557 0z" fill-rule="evenodd"/><path fill="#ffffff" d="m479.184 307.0862l0 44.503937l-95.055115 0l0 -44.503937z" fill-rule="evenodd"/><path stroke="#ffffff" stroke-width="1.0" stroke-linejoin="round" stroke-linecap="butt" d="m479.184 307.0862l0 44.503937l-95.055115 0l0 -44.503937z" fill-rule="evenodd"/><path fill="#ffffff" d="m329.9189 307.07977l0 44.503937l-91.401566 0l0 -44.503937z" fill-rule="evenodd"/><path stroke="#ffffff" stroke-width="1.0" stroke-linejoin="round" stroke-linecap="butt" d="m329.9189 307.07977l0 44.503937l-91.401566 0l0 -44.503937z" fill-rule="evenodd"/><path fill="#ffffff" d="m329.9189 515.20575l51.527557 0l0 85.25983l-51.527557 0z" fill-rule="evenodd"/><path stroke="#ffffff" stroke-width="1.0" stroke-linejoin="round" stroke-linecap="butt" d="m329.9189 515.20575l51.527557 0l0 85.25983l-51.527557 0z" fill-rule="evenodd"/><path fill="#ffffff" d="m283.95364 458.7285l0 0c0 -33.319733 32.64444 -60.33072 72.91339 -60.33072l0 0c40.26895 0 72.91339 27.010986 72.91339 60.33072l0 0c0 33.319733 -32.64444 60.33072 -72.91339 60.33072l0 0c-40.26895 0 -72.91339 -27.010986 -72.91339 -60.33072zm40.332275 0c0 11.04483 14.587067 19.998413 32.581116 19.998413c17.99405 0 32.581085 -8.953583 32.581085 -19.998413c0 -11.04483 -14.587036 -19.998413 -32.581085 -19.998413l0 0c-17.99405 0 -32.581116 8.953583 -32.581116 19.998413z" fill-rule="evenodd"/><path stroke="#ffffff" stroke-width="1.0" stroke-linejoin="round" stroke-linecap="butt" d="m283.95364 458.7285l0 0c0 -33.319733 32.64444 -60.33072 72.91339 -60.33072l0 0c40.26895 0 72.91339 27.010986 72.91339 60.33072l0 0c0 33.319733 -32.64444 60.33072 -72.91339 60.33072l0 0c-40.26895 0 -72.91339 -27.010986 -72.91339 -60.33072zm40.332275 0c0 11.04483 14.587067 19.998413 32.581116 19.998413c17.99405 0 32.581085 -8.953583 32.581085 -19.998413c0 -11.04483 -14.587036 -19.998413 -32.581085 -19.998413l0 0c-17.99405 0 -32.581116 8.953583 -32.581116 19.998413z" fill-rule="evenodd"/><path fill="#ffffff" d="m525.9452 95.17725l1.0994263 42.380974l-308.62402 97.3483l-30.774612 -33.020615z" fill-rule="evenodd"/><path stroke="#ffffff" stroke-width="1.0" stroke-linejoin="round" stroke-linecap="butt" d="m525.9452 95.17725l1.0994263 42.380974l-308.62402 97.3483l-30.774612 -33.020615z" fill-rule="evenodd"/><path fill="#ffffff" d="m669.87164 307.0766l0 44.503937l-91.40155 0l0 -44.503937z" fill-rule="evenodd"/><path stroke="#ffffff" stroke-width="1.0" stroke-linejoin="round" stroke-linecap="butt" d="m669.87164 307.0766l0 44.503937l-91.40155 0l0 -44.503937z" fill-rule="evenodd"/></g></svg>